Cover: 
http://imgh.us/YQ7MNIzG.jpeg

Info:

Format : Matroska
Format version : Version 2
File size : 3.50 GiB
Duration : 1h 30mn
Overall bit rate : 5 552 Kbps
Encoded date : UTC 2012-07-11 12:01:58
Writing application : mkvmerge v3.3.0 ('Language') ??? Mar 24 2010 14:59:24
Writing library : libebml v0.8.0 + libmatroska v0.9.0

Video
ID : 1
Format : AVC
Format/Info : Advanced Video Codec
Format profile : High@L4.1
Format settings, CABAC : Yes
Format settings, ReFrames : 9 frames
Codec ID : V_MPEG4/ISO/AVC
Duration : 1h 30mn
Bit rate : 4 047 Kbps
Width : 1 280 pixels
Height : 720 pixels
Display aspect ratio : 16:9
Frame rate : 23.976 fps
Color space : YUV
Chroma subsampling : 4:2:0
Bit depth : 8 bits
Scan type : Progressive
Bits/(Pixel*Frame) : 0.183
Stream size : 2.48 GiB (71%)
Writing library : x264 core 124 r2197 69a0443
Default : No
Forced : No

Audio
ID : 2
Format : DTS
Format/Info : Digital Theater Systems
Codec ID : A_DTS
Duration : 1h 30mn
Bit rate mode : Constant
Bit rate : 1 510 Kbps
Channel(s) : 6 channels
Channel positions : Front: L C R, Side: L R, LFE
Sampling rate : 48.0 KHz
Bit depth : 24 bits
Compression mode : Lossy
Stream size : 975 MiB (27%)
Title : English DTS-HDMA CORE 5.1CH @ 1509 kbps
Language : English
Default : Yes
Forced : No

SCREENS: 
http://imgh.us/BHYyOEb3_1.png 
http://imgh.us/EYbZMD6.png
